<?xml version="1.0" encoding="UTF-8"?>
<svg height="128px" viewBox="0 0 128 128" width="128px" xmlns="http://www.w3.org/2000/svg" xmlns:xlink="http://www.w3.org/1999/xlink">
    <clipPath id="a">
        <path d="m 15 44 h 98 v 58 h -98 z m 0 0"/>
    </clipPath>
    <clipPath id="b">
        <path d="m 112.628906 53.125 c 0 26.859375 -21.769531 48.632812 -48.628906 48.632812 s -48.628906 -21.773437 -48.628906 -48.632812 c 0 -26.855469 21.769531 -48.628906 48.628906 -48.628906 s 48.628906 21.773437 48.628906 48.628906 z m 0 0"/>
    </clipPath>
    <path d="m 112.628906 53.125 c 0 26.859375 -21.769531 48.632812 -48.628906 48.632812 s -48.628906 -21.773437 -48.628906 -48.632812 c 0 -26.855469 21.769531 -48.628906 48.628906 -48.628906 s 48.628906 21.773437 48.628906 48.628906 z m 0 0" fill="#1d7193"/>
    <g clip-path="url(#a)">
        <g clip-path="url(#b)">
            <path d="m 175.933594 156.484375 c 0 61.820313 -50.117188 111.933594 -111.933594 111.933594 s -111.929688 -50.113281 -111.929688 -111.933594 c 0 -61.816406 50.113282 -111.929687 111.929688 -111.929687 s 111.933594 50.113281 111.933594 111.929687 z m 0 0" fill="#0c5a73"/>
        </g>
    </g>
    <path d="m 64 3.503906 c -27.394531 0 -49.621094 22.230469 -49.621094 49.625 c 0 27.394532 22.226563 49.621094 49.621094 49.621094 s 49.625 -22.226562 49.625 -49.621094 c 0 -27.394531 -22.230469 -49.625 -49.625 -49.625 z m 0 1.984375 c 26.324219 0 47.640625 21.316407 47.640625 47.640625 c 0 26.320313 -21.316406 47.636719 -47.640625 47.636719 c -26.320312 0 -47.636719 -21.316406 -47.636719 -47.636719 c 0 -26.324218 21.316407 -47.640625 47.636719 -47.640625 z m 0 0"/>
    <path d="m 71.292969 24.507812 v 27.3125 h 6.851562 v -27.3125 z m 0 0" fill="#ffffff"/>
    <path d="m 76.890625 25.074219 v 26.179687 h 2.453125 v -26.179687 z m 0 0" fill="#e0e0e0"/>
    <path d="m 73 82.917969 l -2.277344 -19.078125 s -0.386718 -0.898438 -1.734375 -0.898438 c -1.34375 0 -1.324219 0.898438 -1.324219 0.898438 l 1.898438 21.652344 h 10.335938 l -2.332032 -1.765626 z m 0 0" fill="#b1742a"/>
    <path d="m 31.539062 68.5 l 8.996094 -0.351562 l 24.621094 -0.308594 l 11.613281 -7.574219 l 5.273438 -7.445313 l 0.726562 -2.0625 l -16.183593 -15.734374 z m 0 0" fill="#ffffff"/>
    <path d="m 31.792969 68.5 h 34.707031 c 8.074219 -3.40625 16.578125 -10.339844 16.269531 -17.742188 c -3.929687 5.789063 -7.820312 9.722657 -13.265625 12.328126 c -11.460937 5.472656 -27.921875 3.679687 -37.710937 5.414062 z m 0 0" fill="#e0e0e0"/>
    <path d="m 63.730469 82.917969 l 1.519531 -19.078125 s -0.390625 -0.898438 -1.734375 -0.898438 c -1.347656 0 -1.324219 0.898438 -1.324219 0.898438 l -1.898437 21.652344 h 10.332031 l -2.328125 -1.765626 z m 0 0" fill="#fcb320"/>
    <path d="m 35.398438 60.902344 l 22.5 -20.226563 v 21.785157 l -22.5 20.226562 z m 0 0" fill="#b3b3b3"/>
    <path d="m 35.398438 60.902344 l 22.5 -20.226563 v 6.957031 l -22.5 20.226563 z m 0 0" fill="#cccccc"/>
    <path d="m 26.21875 57.207031 l 9.078125 7.816407 l 8.109375 -7.816407 z m 0 0" fill="#0d0d0d"/>
    <path d="m 26.21875 57.207031 l 13.703125 3.359375 l 3.484375 -3.359375 z m 0 0" fill="#565656"/>
    <path d="m 29.609375 64.527344 h 18.777344 l -8.257813 7.226562 h -17.746094 z m 0 0" fill="#0d0d0d"/>
    <path d="m 87.441406 23.421875 c 0 3.027344 -6.355468 7.703125 -9.722656 7.703125 l 0.089844 -1.960938 c -2.777344 0.339844 -4.941406 -3.710937 -4.941406 -7.667968 c 0 -2.394532 2.828124 -5.382813 4.996093 -5.382813 c 4.542969 0.679688 9.578125 6.359375 9.578125 7.308594 z m 0 0" fill="#e0e0e0"/>
    <path d="m 87.21875 23.363281 c -1.378906 3.273438 -6.152344 6.59375 -9.820312 6.59375 c -4.492188 0 -7.585938 -2.046875 -7.664063 -6.535156 c -0.085937 -4.632813 3.566406 -7.644531 8.128906 -7.644531 c 4.570313 0 8.390625 4.9375 9.355469 7.585937 z m 0 0" fill="#ffffff"/>
    <path d="m 80.835938 20.722656 c 0 0.523438 -0.425782 0.949219 -0.949219 0.949219 c -0.523438 0 -1.855469 -0.949219 -1.855469 -0.949219 s 1.332031 -0.945312 1.855469 -0.945312 c 0.25 0 0.492187 0.097656 0.667969 0.273437 c 0.179687 0.179688 0.277343 0.421875 0.28125 0.671875 z m 0 0" fill="#0d0d0d"/>
    <path d="m 83.136719 23.933594 l 3.378906 1.804687 l 7.914063 -0.5 l 3.109374 0.667969 l 1.15625 -1.335938 l -13.105468 -1.378906 z m 0 0" fill="#b1742a"/>
    <path d="m 86.238281 21.4375 l -3.101562 2.496094 l 15.855469 0.804687 l -1.101563 -2.046875 l -2.527344 -0.03125 z m 0 0" fill="#fcb320"/>
    <path d="m 97.0625 24.945312 l -1.789062 0.476563 l 2.121093 0.453125 z m 0 0" fill="#96412a"/>
    <path d="m 72.75 15.890625 v 4.546875 c -1.023438 0.335938 -1.714844 1.289062 -1.714844 2.363281 c 0 1.378907 1.117188 2.496094 2.492188 2.496094 c 0.398437 0 0.792968 -0.097656 1.144531 -0.28125 l 2.039063 2.105469 l 4.242187 0.675781 l 1.707031 -0.082031 c 0.242188 0.402344 0.675782 0.648437 1.140625 0.648437 c 0.738281 0 1.335938 -0.597656 1.335938 -1.339843 c 0 -0.742188 -0.597657 -1.34375 -1.335938 -1.34375 c -0.734375 0 -1.335937 0.601562 -1.335937 1.34375 c 0.003906 0.042968 0.007812 0.089843 0.011718 0.132812 l -1.488281 0.070312 l -4.003906 -0.636718 l -1.832031 -1.894532 c 0.550781 -0.472656 0.871094 -1.164062 0.871094 -1.894531 c -0.003907 -1.054687 -0.667969 -1.992187 -1.664063 -2.34375 v -4.566406 z m 0 0"/>
    <path d="m 13.6875 94.007812 h 19.675781 v 21.796876 h -19.675781 l 7.011719 -10.898438 z m 100.625 0 h -19.675781 v 21.796876 h 19.675781 l -7.011719 -10.898438 z m 0 0" fill="#cccccc"/>
    <path d="m 11.871094 93.015625 l 7.648437 11.890625 l -7.648437 11.890625 h 22.484375 v -23.78125 z m 3.636718 1.984375 h 16.863282 v 19.8125 h -16.863282 l 6.371094 -9.90625 z m 100.621094 -1.984375 l -7.648437 11.890625 l 7.648437 11.890625 h -22.484375 v -23.78125 z m -3.636718 1.984375 h -16.863282 v 19.8125 h 16.863282 l -6.371094 -9.90625 z m 0 0"/>
    <path d="m 24.199219 111.222656 l 9.164062 4.042969 v -11.304687 m 70.4375 7.261718 l -9.164062 4.042969 v -11.304687" fill="#828282"/>
    <path d="m 32.371094 103.957031 v 9.789063 l -7.769532 -3.429688 l -0.800781 1.816406 l 10.554688 4.65625 v -12.832031 z m 63.257812 0 v 9.789063 l 7.769532 -3.429688 l 0.800781 1.816406 l -10.554688 4.65625 v -12.832031 z m 0 0"/>
    <path d="m 24.804688 86.480469 h 78.390624 v 24.664062 h -78.390624 z m 0 0" fill="#efefef"/>
    <path d="m 23.808594 85.492188 v 26.640624 h 80.382812 v -26.640624 z m 1.992187 1.972656 h 76.398438 v 22.691406 h -76.398438 z m 0 0"/>
    <path d="m 42.703125 104.625 c -2.367187 0 -2.878906 -1.671875 -3.648437 -1.671875 c -0.53125 0 -0.980469 0.695313 -0.980469 1.203125 c 0 1.058594 1.941406 2.5 4.714843 2.5 c 2.816407 0 4.867188 -1.480469 4.867188 -4.507812 c 0 -5.632813 -6.9375 -4.214844 -6.9375 -7.347657 c 0 -1.335937 1.109375 -1.929687 2.667969 -1.929687 c 1.8125 0 2.367187 0.804687 2.945312 0.804687 c 0.640625 0 0.9375 -0.78125 0.9375 -1.207031 c 0 -1.164062 -2.496093 -1.523438 -3.882812 -1.523438 c -2.285157 0 -4.929688 0.933594 -4.929688 4.066407 c 0 5.082031 6.933594 3.621093 6.933594 7.367187 c 0 1.523438 -1.148437 2.246094 -2.6875 2.246094 z m 10.90625 -8.300781 c -2.453125 0 -4.441406 1.882812 -4.441406 4.105469 v 2.011718 c 0 2.519532 2.050781 4.214844 4.953125 4.214844 c 2.15625 0 3.542968 -0.972656 3.542968 -1.609375 c 0 -0.378906 -0.34375 -0.996094 -0.875 -0.996094 c -0.578124 0 -1.089843 0.804688 -2.605468 0.804688 c -1.644532 0 -2.773438 -0.886719 -2.773438 -2.304688 v -0.488281 h 4.503906 c 0.960938 0 1.941407 -0.0625 1.941407 -1.820312 c 0 -2.308594 -1.964844 -3.917969 -4.246094 -3.917969 z m -2.199219 4.359375 v -0.675782 c 0 -1.164062 1.003906 -1.988281 2.175782 -1.988281 c 1.21875 0 2.15625 0.910157 2.15625 2.03125 c 0 0.507813 -0.171876 0.632813 -0.789063 0.632813 z m 11.480469 -4.359375 c -1.449219 0 -3.222656 0.59375 -3.222656 1.355469 c 0 0.507812 0.277343 1.121093 0.8125 1.121093 c 0.425781 0 0.808593 -0.632812 2.367187 -0.632812 s 2.113282 1.203125 2.113282 2.285156 v 0.378906 h -0.9375 c -2.96875 0 -4.996094 0.636719 -4.996094 3.03125 c 0 1.902344 1.28125 2.792969 2.839844 2.792969 c 1.449218 0 2.472656 -0.78125 3.222656 -1.652344 v 0.742188 c 0 0.402344 0.445312 0.742187 1.023437 0.742187 c 0.617188 0 1.085938 -0.339843 1.085938 -0.742187 v -5.316406 c 0 -2.117188 -1.171875 -4.105469 -4.308594 -4.105469 z m 2.070313 6.519531 c 0 1.019531 -1.21875 2.117188 -2.285157 2.117188 c -0.789062 0 -1.386719 -0.421876 -1.386719 -1.375 c 0 -1.355469 1.515626 -1.523438 3.136719 -1.523438 h 0.535157 z m 11.777343 -7.578125 c 0.023438 0.550781 0.535157 0.742187 1.132813 0.742187 c 0.746094 0 1.128906 -0.214843 1.128906 -1.082031 c 0 -2.390625 -2.003906 -3.917969 -4.863281 -3.917969 c -2.605469 0 -4.714844 1.292969 -4.714844 4.722657 v 6.160156 c 0 3.433594 2.066406 4.722656 4.777344 4.722656 c 2.691406 0 4.800781 -1.289062 4.800781 -4.722656 v -2.773437 c 0 -0.402344 -0.277344 -0.761719 -0.746094 -0.761719 h -3.671875 c -0.46875 0 -0.722656 0.46875 -0.722656 0.890625 c 0 0.464844 0.253906 0.910156 0.722656 0.910156 h 2.15625 v 1.734375 c 0 1.863281 -0.960937 2.734375 -2.539062 2.734375 c -1.601563 0 -2.515625 -0.871094 -2.515625 -2.730469 v -6.164062 c 0 -1.863281 0.914062 -2.730469 2.515625 -2.730469 c 1.855469 0 2.410156 1.035156 2.539062 2.265625 z m 12.503907 11.222656 c 0.449218 0 0.683593 -0.507812 0.683593 -0.996093 c 0 -0.507813 -0.234375 -0.996094 -0.683593 -0.996094 h -5.546876 v -12.765625 c 0 -0.511719 -0.554687 -0.722657 -1.128906 -0.722657 c -0.554687 0 -1.132812 0.210938 -1.132812 0.722657 v 14.015625 c 0 0.488281 0.511718 0.742187 1.003906 0.742187 z m 0 0" fill="#0c5a73"/>
</svg>
